<?xml version="1.0" encoding="utf-8"?>
<!-- Generator: Adobe Illustrator 15.0.0, SVG Export Plug-In . SVG Version: 6.00 Build 0)  -->
<!DOCTYPE svg PUBLIC "-//W3C//DTD SVG 1.1//EN" "http://www.w3.org/Graphics/SVG/1.1/DTD/svg11.dtd">
<svg version="1.1" id="Layer_1" xmlns="http://www.w3.org/2000/svg" xmlns:xlink="http://www.w3.org/1999/xlink" x="0px" y="0px"
	 width="800px" height="390px" viewBox="0 0 800 390" enable-background="new 0 0 800 390" xml:space="preserve">
<g>
	<path fill-rule="evenodd" clip-rule="evenodd" fill="#AFAFAF" d="M165.337,65.06c-5.337-5.529-19.614-12.889-3.815-17.865
		C166.863,51.492,163.309,56.479,165.337,65.06z"/>
	<path fill-rule="evenodd" clip-rule="evenodd" fill="#AFAFAF" d="M167.034,66.372c3.231-0.671,1.365,5.25,2.468,7.332
		C166.714,72.669,164.938,68.928,167.034,66.372z"/>
	<path fill-rule="evenodd" clip-rule="evenodd" fill="#AFAFAF" d="M171.199,75.016c3.543-0.026,3.974,3.577,2.275,5.827
		C171.372,80.638,171.742,77.234,171.199,75.016z"/>
	<path fill-rule="evenodd" clip-rule="evenodd" fill="#AFAFAF" d="M175.556,85.164c4.107-2.774,5.251,6.165,0.578,4.515
		C175.941,88.174,175.749,86.669,175.556,85.164z"/>
	<path fill-rule="evenodd" clip-rule="evenodd" fill="#AFAFAF" d="M179.529,92.303c3.317-0.2,3.717,3.378,3.972,7.139
		C180.183,99.642,179.784,96.064,179.529,92.303z"/>
	<path fill-rule="evenodd" clip-rule="evenodd" fill="#AFAFAF" d="M296.36,85.001c2.936,12.92-8.332,7.364-15.397,11.147
		C284.567,91.743,286.773,80.416,296.36,85.001z"/>
	<path fill-rule="evenodd" clip-rule="evenodd" fill="#AFAFAF" d="M183.887,102.452c1.004-0.129,2.005-0.257,3.009-0.385
		c0.257,2.006,0.514,4.012,0.771,6.019c-1.003,0.128-2.006,0.257-3.01,0.385C184.4,106.464,184.144,104.458,183.887,102.452z"/>
	<path fill-rule="evenodd" clip-rule="evenodd" fill="#AFAFAF" d="M279.458,96.34c2.097,4.333-3.01,3.096-5.633,3.78
		C273.848,97.427,275.974,96.359,279.458,96.34z"/>
	<path fill-rule="evenodd" clip-rule="evenodd" fill="#AFAFAF" d="M258.377,158.686c-5.331,38.366-21.022,68.72-26.032,107.333
		c-6.498,0.219-6.109-8.469-14.506-5.792c1.914-5.974,5.485-10.771,8.415-17.899c3.711-9.024,8.67-25.904,11.74-39.739
		c2.522-11.373,7.17-28.036,4.6-35.765c-5.285-15.9-37.646-20.051-52.004-23.934c-21.609-5.844-39.933-13.45-60.42-6.034
		c-10.116,20.674-20.691,52.967-23.863,76.466c-3.787,28.053,25.965,29.773,47.525,36.744c15.893,5.137,37.87,10.73,60.997,10.548
		c0.448,3.51,0.898,7.021,1.348,10.531c-39.795-9.324-77.862-20.887-117.13-30.894c1.027-3.726,7.214-3.463,6.561-8.487
		c-0.994-7.972-10.438-2.311-12.808-4.479c6.294-36.716,18.82-68.613,26.417-104.322c1.048-1.45,4.009-1.422,4.13-3.587
		c31.885,7.979,69.605,18.772,103.01,28.114C237.223,150.528,250.18,150.475,258.377,158.686z"/>
	<path fill-rule="evenodd" clip-rule="evenodd" fill="#AFAFAF" d="M272.512,101.817c-0.204,2.103-3.606,1.731-5.827,2.276
		C266.659,100.55,270.261,100.119,272.512,101.817z"/>
	<path fill-rule="evenodd" clip-rule="evenodd" fill="#AFAFAF" d="M265.373,105.79c-0.42,1.935-1.528,3.336-4.129,3.588
		C260.132,106.256,263.027,106.236,265.373,105.79z"/>
	<path fill-rule="evenodd" clip-rule="evenodd" fill="#AFAFAF" d="M253.721,110.34c2.953-0.898,4.748-0.295,4.897,2.432
		c-1.504,0.192-3.008,0.385-4.513,0.577C253.977,112.346,253.849,111.343,253.721,110.34z"/>
	<path fill-rule="evenodd" clip-rule="evenodd" fill="#AFAFAF" d="M110.957,130.136C117.47,136.794,107.475,139.746,110.957,130.136
		L110.957,130.136z"/>
	<path fill-rule="evenodd" clip-rule="evenodd" fill="#AFAFAF" d="M108.91,138.045c2.421-0.577,4.297,9.456-0.542,7.717
		C107.442,142.333,107.87,139.954,108.91,138.045z"/>
	<path fill-rule="evenodd" clip-rule="evenodd" fill="#AFAFAF" d="M105.551,147.652c5.643-1.928,6.716,6.464,0.77,6.02
		C106.064,151.664,105.808,149.658,105.551,147.652z"/>
	<path fill-rule="evenodd" clip-rule="evenodd" fill="#AFAFAF" d="M103.504,155.561c7.625,0.973-0.142,10.954,0.421,15.24
		C96.054,169.639,105.258,160.769,103.504,155.561z"/>
	<path fill-rule="evenodd" clip-rule="evenodd" fill="#AFAFAF" d="M92.15,198.308c5.238-2.135,3.499,6.155,2.468,7.332
		C91.387,206.311,93.253,200.389,92.15,198.308z"/>
	<path fill-rule="evenodd" clip-rule="evenodd" fill="#AFAFAF" d="M90.104,206.218c3.317-0.201,3.716,3.378,3.972,7.138
		c-4.637,0.031-2.496,5.301-3.552,8.101C82.621,218.989,91.548,212.049,90.104,206.218z"/>
	<path fill-rule="evenodd" clip-rule="evenodd" fill="#AFAFAF" d="M264.26,240.521c-6.771,1.741-8.825-2.616-14.121-2.78
		C251.928,231.004,261.271,237.898,264.26,240.521z"/>
	<path fill-rule="evenodd" clip-rule="evenodd" fill="#AFAFAF" d="M247.199,262.588c6.436,0.445,13.73-0.221,16.012,5.599
		C256.776,267.74,249.481,268.406,247.199,262.588z"/>
	<path fill-rule="evenodd" clip-rule="evenodd" fill="#AFAFAF" d="M229.527,267.908c0.961,3.906-1.452,5.205-5.441,5.283
		C223.124,269.284,225.537,267.987,229.527,267.908z"/>
	<path fill-rule="evenodd" clip-rule="evenodd" fill="#AFAFAF" d="M236.083,127.891c10.212,7.925,24.881,11.435,38.619,14.941
		c14.079,3.595,28.967,5.49,41.242,11.547c-1.678,27.205-12.171,52.518-19.158,77.394c-7.067,25.166-9.482,51.383-22.742,73.263
		c-8.006,1.003-11.86-3.367-18.828-3.707c-0.286,3.401-2.616,8.249-2.974,12.614c-1.006,12.275,3.497,28.76-4.601,35.766
		c-6.653-23.894,3.417-59.557-22.557-56.761c-5.989,8.479-1.308,25.205-6.298,34.452c-7.579-4.901-4.469-25.804-7.824-37.234
		c-23.122-8.678-49.53-13.103-73.07-21.237c-12.109,7.36-14.546,22.2-26.823,29.432c1.479-12.416,9.791-19.549,12.894-30.71
		c-23.01-23.117-36.86,34.693-53.331,37.414c5.411-17.062,17.569-28.903,21.502-47.104c-7.274-4.623-19.358-3.024-24.305-10.656
		c10.816-50.847,24.569-99.423,39.276-147.262c27.39-0.351,46.121,10.498,69.292,15.604c20.604-7.578,40.594,0.909,56.29,9.621
		c4.073-1.823,5.552-5.65,11.46-6.054C241.342,122.012,236.799,123.473,236.083,127.891z M264.167,144.18
		c-49.387-13.567-100.383-27.697-148.767-39.083c-3.917,1.094-3.199,5.365-3.744,6.597c-8.381,18.955-13.009,42.653-19.193,65.162
		c-6.214,22.619-13.814,45.436-15.797,67.786c13.931,9.47,31.322,10.622,47.839,15.292c32.948,9.316,66.326,17.986,98.304,27.188
		c17.445,5.019,34.855,11.36,50.272,10.392c14.766-44.178,26.778-90.484,37.42-137.849
		C296.512,151.417,280.015,148.534,264.167,144.18z"/>
	<path fill-rule="evenodd" clip-rule="evenodd" fill="#AFAFAF" d="M86.815,240.285c31.521,11.123,67.421,19.819,104.708,29.427
		c8.451,2.179,29.216,11.157,34.838,9.307c5.74-1.887,11.423-20.92,13.28-27.699c3.594-13.11,3.939-23.577,6.489-32.949
		c6.207-22.791,13.855-39.999,16.568-61.767c-20.816-10.244-45.125-15.494-68.557-21.817c-23.427-6.32-47.056-11.825-69.677-18.615
		c-8.038,0.113-7.016,7.231-9.186,11.882c-7.047-1.998,2.378-13.081,3.901-17.324c61.855,16.453,125.576,30.495,183.99,51.4
		c-3.746,27.839-11.35,52.694-20.854,76.081c-1.66,20.411-6.77,38.156-14.521,53.858c-9.383,1.772-20.893-3.963-31.444-6.682
		c-11.236-2.896-23.647-3.365-31.828-9.693c-21.721-2.988-42.62-9.399-63.079-14.87c-20.136-5.384-40.3-10.371-58.951-18.457
		c-1.59-8.461,3.824-11.508,3.708-18.828c2.59,4.833,5.159,9.694,9.257,12.581C91.667,240.484,83.421,222.392,86.815,240.285z
		 M282.366,190.792c17.024-4.361,9.005-33.097-7.979-26.507C257.229,170.942,265.828,195.031,282.366,190.792z M277.19,222.045
		c13.687-7.769,5.555-32.071-12.302-24.427C244.181,206.481,264.034,229.508,277.19,222.045z M276.49,240.487
		c-0.192-1.506-0.386-3.011-0.578-4.514c-11.763,2.354-15.435-5.762-26.544-4.253c-1.034,5.078-2.912,9.501-4.286,14.314
		c6.119,2.606,12.301,5.136,19.213,6.719c-6.028,5.389-13.477-2.394-18.827-3.708c-4.454,7.038,6.144,6.333,10.184,7.871
		c-3.793,5.919-8.699-1.492-13.735,0.229c4.748,4.512,3.206,6.302-1.854,9.414c8.742,1.578,20.428,8.619,28.241,5.563
		c-6.879-1.402-0.414-4.779,0.543-7.719c-3.618-2.919-11.081-0.867-13.003-5.982c6.948-2.885,13.09,7.073,15.241-0.421
		c-1.608-1.426-5.61,0.241-5.092-3.936c2.509-0.321,5.016-0.642,7.523-0.963c-5.323-7.146-19.39-2.981-24.305-10.656
		c10.339-1.096,14.929,5.247,25.04,4.443c1.493-7.192-6.603-1.981-6.982-6.754C272.877,237.725,273.303,244.771,276.49,240.487z"/>
	<path fill-rule="evenodd" clip-rule="evenodd" fill="#AFAFAF" d="M99.604,172.884c8.717-0.299-0.489,7.459-0.542,7.716
		c-0.53,2.542,3.046,3.158,2.275,5.827c-0.444,1.534-3.748,0.936-4.322,2.082c-1.548,3.092,4.187,9.33-2.047,7.91
		C94.412,186.95,98.885,181.367,99.604,172.884z"/>
</g>
<text transform="matrix(0.9641 0.2656 -0.2656 0.9641 119.3809 183.5439)"><tspan x="0" y="0" fill="#AFAFAF" font-family="'AldineExpanded'" font-size="48">TV</tspan><tspan x="0" y="31.428" fill="#AFAFAF" font-family="'OilCan'" font-size="26.1896">FREAKS</tspan></text>
</svg>
